<svg width="16" height="18" viewBox="0 0 16 18" fill="none" xmlns="http://www.w3.org/2000/svg">
<path fill-rule="evenodd" clip-rule="evenodd" d="M1.71391 7.50471L8.23917 1.30572C9.93144 -0.301939 12.6752 -0.301939 14.3674 1.30572C16.0597 2.91338 16.0597 5.51991 14.3674 7.12757L7.84217 13.3266C6.79726 14.2744 5.14126 14.2608 4.11438 13.2853C3.07298 12.296 3.07298 10.6919 4.11438 9.70261L10.5962 3.54489C10.9867 3.17389 11.6199 3.17389 12.0104 3.54489C12.4009 3.91589 12.4009 4.5174 12.0104 4.88839L5.5286 11.0461C5.26825 11.2934 5.26825 11.6945 5.5286 11.9418C5.78894 12.1891 6.21106 12.1891 6.4714 11.9418L12.9532 5.78406C13.8644 4.9184 13.8644 3.51488 12.9532 2.64922C12.042 1.78356 10.5646 1.78356 9.65339 2.64922L3.17157 8.80694C1.60948 10.2909 1.60948 12.697 3.17157 14.181C4.73367 15.6649 7.26633 15.6649 8.82843 14.181L14.1317 9.14282C14.5223 8.77182 15.1554 8.77182 15.5459 9.14282C15.9365 9.51382 15.9365 10.1153 15.5459 10.4863L10.2426 15.5245C7.89949 17.7504 4.10051 17.7504 1.75736 15.5245C-0.571287 13.3122 -0.585697 9.73404 1.71413 7.50492L1.71391 7.50471Z" fill="#92929D"/>
</svg>
