<svg width="20" height="20" viewBox="0 0 20 20" fill="none" xmlns="http://www.w3.org/2000/svg">
<path fill-rule="evenodd" clip-rule="evenodd" d="M10 16.2241L4.90049 18.8865C4.16646 19.2697 3.31135 18.6458 3.45228 17.8298L4.4246 12.2001L0.304487 8.21194C-0.292531 7.63404 0.0347914 6.62234 0.857178 6.50367L6.55681 5.68123L9.10449 0.554948C9.47223 -0.184983 10.5278 -0.184983 10.8955 0.554948L13.4432 5.68123L19.1428 6.50367C19.9652 6.62234 20.2925 7.63404 19.6955 8.21194L15.5754 12.2001L16.5477 17.8298C16.6886 18.6458 15.8335 19.2697 15.0995 18.8865L10 16.2241ZM9.5372 14.2096C9.82716 14.0582 10.1728 14.0582 10.4628 14.2096L14.2328 16.1778L13.5146 12.0195C13.4583 11.6936 13.5668 11.3609 13.8045 11.1308L16.8404 8.19215L12.6383 7.5858C12.3132 7.53889 12.0318 7.33528 11.8856 7.04111L10 3.24693L8.11435 7.04111C7.96815 7.33528 7.6868 7.53889 7.36166 7.5858L3.15963 8.19215L6.19551 11.1308C6.43318 11.3609 6.5417 11.6936 6.48541 12.0195L5.76722 16.1778L9.5372 14.2096Z" fill="#92929D"/>
</svg>
