<svg width="18" height="22" viewBox="0 0 18 22" fill="none" xmlns="http://www.w3.org/2000/svg">
<path fill-rule="evenodd" clip-rule="evenodd" d="M4 0H12.1482C12.7514 0 13.3224 0.272273 13.7022 0.740983L17.554 5.49524C17.8425 5.8514 18 6.29587 18 6.75425V18C18 20.2091 16.2091 22 14 22H4C1.79086 22 0 20.2091 0 18V4C0 1.79086 1.79086 0 4 0ZM12.625 2.58854V5.4H14.9028L12.625 2.58854ZM4 2C2.89543 2 2 2.89543 2 4V18C2 19.1046 2.89543 20 4 20H14C15.1046 20 16 19.1046 16 18V7.4H12.625C11.5204 7.4 10.625 6.50457 10.625 5.4V2H4Z" fill="#92929D"/>
</svg>
