<svg width="21" height="23" viewBox="0 0 21 23" fill="none" xmlns="http://www.w3.org/2000/svg">
<path fill-rule="evenodd" clip-rule="evenodd" d="M10.5107 19.7589L9.6149 21.2173C9.55827 21.3095 9.48706 21.3919 9.40405 21.4613C8.4933 22.2224 7.10211 22.1806 6.24575 21.362C5.79513 20.9312 5.5541 20.3373 5.59054 19.7865L5.58875 15.9382L1.18923 12.3602C0.755299 12.0073 0.420764 11.5477 0.218586 11.0264C-0.425038 9.36709 0.401005 7.50157 2.06213 6.85992L19.6339 0.0723495C19.9741 -0.0590634 20.2949 -0.00113818 20.54 0.163042C20.8445 0.358077 21.0233 0.707408 20.9982 1.07282C20.9939 1.14262 20.9818 1.21276 20.9612 1.28218L16.1697 18.5442C15.6969 20.2474 13.9245 21.2453 12.2116 20.7801C11.78 20.6629 11.3777 20.4578 11.0302 20.1777L10.5107 19.7589ZM8.94083 18.4934L7.58855 17.4033L7.58858 19.8484C7.58761 19.8641 7.59674 19.8866 7.62777 19.9163C7.72162 20.006 7.89465 20.0291 8.02785 19.9798L8.94083 18.4934ZM8.11498 15.2587L12.2854 18.6206C12.4174 18.727 12.5708 18.8052 12.7358 18.85C13.3909 19.028 14.0652 18.6483 14.2426 18.0092L17.9416 4.68289L8.11498 15.2587ZM6.47949 14.0834L16.3165 3.49968L2.78324 8.72565C2.15244 8.96923 1.83969 9.67531 2.08322 10.303C2.15979 10.5003 2.28661 10.6745 2.45127 10.8084L6.47949 14.0834Z" fill="#92929D"/>
</svg>
