<svg width="20" height="20" viewBox="0 0 20 20" fill="none" xmlns="http://www.w3.org/2000/svg">
<path fill-rule="evenodd" clip-rule="evenodd" d="M17 13V4C17 2.89543 16.1046 2 15 2H5C3.89543 2 3 2.89543 3 4V13H7.0315C7.58994 13 8.04017 13.4574 8.03137 14.0157L8.01586 15.0007L12.0101 15.0033L12.0216 13.9887C12.0278 13.4408 12.4736 13 13.0215 13H17ZM19 13C19.6311 13 20.1043 13.5773 19.9806 14.1961L19.4629 16.7845C19.089 18.6542 17.4473 20 15.5406 20H4.45942C2.55269 20 0.911032 18.6542 0.537093 16.7845L0.0194234 14.1961C-0.104335 13.5773 0.368958 13 1 13V4C1 1.79086 2.79087 0 5 0H15C17.2091 0 19 1.79086 19 4V13ZM2.21981 15L2.49825 16.3922C2.68522 17.3271 3.50605 18 4.45942 18H15.5406C16.494 18 17.3148 17.3271 17.5018 16.3922L17.7802 15H14.0102L13.9987 16.0153C13.9925 16.5634 13.5463 17.0043 12.9981 17.004L6.99934 17C6.44116 16.9996 5.99134 16.5424 6.00013 15.9843L6.01563 15H2.21981Z" fill="#0062FF"/>
</svg>
