<svg width="20" height="22" viewBox="0 0 20 22" fill="none" xmlns="http://www.w3.org/2000/svg">
<path fill-rule="evenodd" clip-rule="evenodd" d="M9.66036 0.0594461C9.87985 -0.0198154 10.1202 -0.0198154 10.3396 0.0594461L19.3396 3.30945C19.7359 3.45255 20 3.82868 20 4.25V11C20 16.4996 16.6712 20.1983 10.2657 21.964C10.0941 22.0114 9.91284 22.012 9.74083 21.9658C3.33125 20.2459 0 16.5445 0 11L0 4.25C0 3.82868 0.264077 3.45255 0.660356 3.30945L9.66036 0.0594461ZM10 2.0632L2 4.95209V11C2 15.4966 4.58512 18.44 9.9965 19.962C15.4123 18.3998 18 15.4544 18 11V4.95209L10 2.0632ZM9.04967 5.93025C9.04967 5.37796 9.49738 4.93025 10.0497 4.93025C10.602 4.93025 11.0497 5.37796 11.0497 5.93025V12.5428C11.0497 13.0951 10.602 13.5428 10.0497 13.5428C9.49738 13.5428 9.04967 13.0951 9.04967 12.5428V5.93025ZM10 17C9.44771 17 9 16.5523 9 16C9 15.4477 9.44771 15 10 15C10.5523 15 11 15.4477 11 16C11 16.5523 10.5523 17 10 17Z" fill="#92929D"/>
</svg>
