<svg width="20" height="18" viewBox="0 0 20 18" fill="none" xmlns="http://www.w3.org/2000/svg">
<path d="M14.4545 11.0103H13.5766L13.2654 10.7403C14.3545 9.60033 15.0102 8.12033 15.0102 6.51033C15.0102 2.92033 11.7762 0.0103284 7.78661 0.0103284C3.79697 0.0103284 0.563034 2.92033 0.563034 6.51033C0.563034 10.1003 3.79697 13.0103 7.78661 13.0103C9.57583 13.0103 11.2206 12.4203 12.4875 11.4403L12.7875 11.7203V12.5103L18.3441 17.5003L20 16.0103L14.4545 11.0103ZM7.78661 11.0103C5.01942 11.0103 2.78567 9.00033 2.78567 6.51033C2.78567 4.02033 5.01942 2.01033 7.78661 2.01033C10.5538 2.01033 12.7875 4.02033 12.7875 6.51033C12.7875 9.00033 10.5538 11.0103 7.78661 11.0103Z" fill="#C9CED6"/>
</svg>
