<svg width="20" height="19" viewBox="0 0 20 19" fill="none" xmlns="http://www.w3.org/2000/svg">
<path fill-rule="evenodd" clip-rule="evenodd" d="M3.99999 0.530029H16C17.9882 0.530029 19.6 2.06122 19.6 3.95003V15.35C19.6 17.2388 17.9882 18.77 16 18.77H3.99999C2.01177 18.77 0.399994 17.2388 0.399994 15.35V3.95003C0.399994 2.06122 2.01177 0.530029 3.99999 0.530029ZM4.00001 1.66998C2.67452 1.66998 1.60001 2.69077 1.60001 3.94998V15.35C1.60001 16.6092 2.67452 17.63 4.00001 17.63H16C17.3255 17.63 18.4 16.6092 18.4 15.35V3.94998C18.4 2.69077 17.3255 1.66998 16 1.66998H4.00001Z" fill="#92929D"/>
</svg>
